<?xml version="1.0" encoding="utf-8"?>
<!-- Generator: Adobe Illustrator 21.1.0, SVG Export Plug-In . SVG Version: 6.00 Build 0)  -->
<svg version="1.1" id="Layer_1" xmlns="http://www.w3.org/2000/svg" xmlns:xlink="http://www.w3.org/1999/xlink" x="0px" y="0px"
	 viewBox="0 0 483.7 483.7" style="enable-background:new 0 0 483.7 483.7;" xml:space="preserve">
<g>
	<path d="M241.9,250.8c-5.2,0-9.5-4.3-9.5-9.5s4.3-9.5,9.5-9.5s9.5,4.3,9.5,9.5S247.1,250.8,241.9,250.8L241.9,250.8z M241.9,233.8
		c-4.1,0-7.5,3.4-7.5,7.5s3.4,7.5,7.5,7.5s7.5-3.4,7.5-7.5S246,233.8,241.9,233.8L241.9,233.8z"/>
	<g>
		<rect x="140.2" y="240.8" width="89.7" height="1"/>
		<rect x="253.9" y="240.8" width="89.7" height="1"/>
		<polygon points="241.4,229.3 242.4,229.3 242.4,116.3 246,118.7 241.8,108.2 237.7,118.7 241.4,116.3 		"/>
		<polygon points="242.4,361.7 242.4,253.3 241.4,253.3 241.4,361.6 237.4,366 237.4,366 237.4,366 237.4,372.5 241.8,369.4 
			246.3,372.6 246.3,366 246.3,366 246.3,366 		"/>
	</g>
	<path d="M480.9,240.3c-0.2-63.5-25.1-123.1-70-168c-44.8-44.8-104.3-69.6-167.6-70V0h-3v2.3c-63.2,0.4-122.6,25.2-167.4,70
		c-44.9,44.9-69.8,104.6-70,168H0v3h2.9c0.5,63.1,25.3,122.3,70,167c44.8,44.8,104.2,69.6,167.5,70v3.4h3v-3.4
		c63.3-0.4,122.7-25.2,167.5-70c44.7-44.7,69.5-103.9,70-167h2.8v-3L480.9,240.3L480.9,240.3z M475.9,243.3c0,5.7-0.3,11.5-0.8,17.1
		l-18.5-1.5l-0.1,1l18.5,1.5c-0.6,6.9-1.5,13.7-2.7,20.5l-49.1-8.6l-0.2,1l49.1,8.7c-1.1,6-2.4,11.9-3.9,17.8l-18.1-4.7l-0.3,1
		l18.1,4.7c-1.8,6.7-3.8,13.2-6.2,19.7l-46.8-17l-0.3,0.9l46.8,17c-2.1,5.7-4.4,11.3-7,16.8l-17.1-7.8l-0.4,0.9l17,7.8
		c-2.9,6.2-6.1,12.3-9.5,18.3l-43-24.8l-0.5,0.9l43,24.8c-3.1,5.2-6.3,10.4-9.8,15.4l-15.4-10.6l-0.6,0.8l15.4,10.6
		c-3.9,5.6-8.1,11-12.5,16.3L383.1,360l-0.6,0.8l37.9,31.8c-3.9,4.6-8.1,9.1-12.4,13.5L394.7,393l-0.7,0.7l13.3,13.1l-0.1,0.1
		c-4.8,4.8-9.8,9.4-15,13.7l-31.8-37.9l-0.8,0.6l31.8,37.9c-4.7,4-9.6,7.7-14.6,11.2l-10.9-15.3l-0.8,0.6L376,433
		c-5.6,3.9-11.3,7.6-17.1,11l-24.7-42.8l-0.9,0.5l24.7,42.8c-5.4,3.1-10.8,5.9-16.4,8.6l-8.1-17l-0.9,0.4l8.1,17
		c-6.1,2.9-12.4,5.5-18.7,7.8l-16.9-46.5l-0.9,0.3l16.9,46.5c-5.8,2.1-11.8,4-17.8,5.6l-5-18.1l-1,0.3l5,18.1
		c-6.5,1.7-13,3.2-19.7,4.4l-8.6-48.6l-1,0.2l8.6,48.6c-6.1,1-12.3,1.9-18.6,2.4l-1.8-18.6l-1,0.1l1.8,18.6
		c-6.3,0.5-12.6,0.8-19,0.9v-44.3h-3v44.3c-6,0-11.9-0.3-17.8-0.8L224,456l-1-0.1l-1.5,18.6c-6.6-0.6-13.2-1.4-19.7-2.5l8.6-48.6
		l-1-0.2l-8.6,48.6c-6.2-1.1-12.4-2.5-18.5-4l4.7-18.1l-1-0.3l-4.7,18.1c-6.4-1.7-12.7-3.7-18.9-5.9l16.9-46.4l-0.9-0.3l-16.9,46.4
		c-6-2.2-11.8-4.6-17.6-7.3l7.8-17.1l-0.9-0.4l-7.8,17.1c-5.9-2.8-11.8-5.8-17.5-9.1l24.7-42.8l-0.9-0.5L124.6,444
		c-5.5-3.2-10.9-6.6-16.2-10.3l10.6-15.4l-0.8-0.6l-10.6,15.4c-5.3-3.7-10.5-7.7-15.5-11.9l31.8-37.8l-0.8-0.6l-31.8,37.8
		c-4.9-4.1-9.6-8.4-14.2-13l13-13.3l-0.7-0.7l-13.1,13.3c-4.6-4.6-9-9.4-13.2-14.4l37.9-31.8l-0.6-0.8l-37.9,31.7
		c-4.2-5-8.1-10-11.8-15.3l15.2-10.8l-0.6-0.8l-15.2,10.8c-3.7-5.3-7.2-10.8-10.5-16.4l43-24.8l-0.5-0.9l-43,24.8
		c-3.2-5.6-6.3-11.3-9-17.2l16.9-8l-0.4-0.9l-16.9,8c-2.7-5.9-5.2-11.8-7.5-17.9l46.7-17l-0.3-0.9l-46.7,17
		c-2.2-6.1-4.2-12.3-5.8-18.5l17.9-5l-0.3-1l-17.9,5c-1.7-6.2-3.1-12.5-4.2-18.9l49-8.6l-0.2-1l-49,8.6c-1.1-6.4-2-12.8-2.5-19.3
		l18.4-1.8l-0.1-1l-18.4,1.8c-0.5-6.1-0.8-12.2-0.9-18.3h44.8v-3H7.9c0-6.2,0.3-12.4,0.8-18.5l18.4,1.5l0.1-1l-18.4-1.5
		c0.6-6.5,1.4-12.9,2.4-19.2l49.2,8.7l0.2-1l-49.2-8.7c1.1-6.4,2.5-12.8,4.1-19l18,4.7l0.3-1l-18-4.7c1.7-6.3,3.6-12.4,5.8-18.5
		l47.1,17.1l0.3-0.9l-47.1-17.1c2.2-6.1,4.7-12.1,7.4-18l16.9,7.7l0.4-0.9l-16.9-7.7c2.7-5.9,5.7-11.6,9-17.3l43.4,25.1l0.5-0.9
		l-43.4-25.1c3.2-5.6,6.7-11,10.4-16.4l15.2,10.5l0.6-0.8l-15.2-10.5c3.7-5.3,7.7-10.5,11.9-15.5l38.4,32.2l0.6-0.8l-38.4-32
		c4.1-4.9,8.5-9.7,13-14.3l13.1,12.9l0.7-0.7L76.4,75.9l0,0c4.6-4.6,9.4-9,14.4-13.2l32.3,38.5l0.8-0.6L91.6,62
		c4.9-4.1,10-8.1,15.2-11.8l10.7,15.1l0.8-0.6l-10.7-15c5.4-3.8,10.9-7.3,16.6-10.6l25.2,43.6l0.9-0.5L125,38.5
		c5.5-3.2,11.2-6.2,17-8.9l8,16.7l0.9-0.4l-8-16.7c6-2.8,12.1-5.3,18.3-7.6L178.4,69l0.9-0.3l-17.2-47.4c6-2.2,12-4.1,18.2-5.7
		l4.9,17.8l1-0.3l-4.9-17.8c6.4-1.7,12.9-3.2,19.4-4.3l8.7,49.6l1-0.2l-8.7-49.6c6.2-1.1,12.5-1.9,18.8-2.5l1.8,18.3l1-0.1
		l-1.8-18.3c6.3-0.5,12.6-0.8,19-0.9v45.4h3V7.3c6,0,11.9,0.3,17.8,0.8l-1.5,18.4l1,0.1l1.5-18.4c6.7,0.6,13.4,1.4,20,2.6l-8.8,49.6
		l1,0.2l8.8-49.7c6.2,1.1,12.2,2.4,18.3,4L297,32.8l1,0.3l4.6-17.9c6.5,1.7,13,3.7,19.3,6l-17.3,47.4l0.9,0.3l17.3-47.4
		c5.8,2.1,11.6,4.5,17.2,7.1l-7.7,16.9L333,46l7.7-16.9c6.1,2.9,12.2,6,18,9.4l-25.2,43.7l0.9,0.5L359.6,39
		c5.3,3.1,10.5,6.4,15.6,9.9l-10.5,15.3l0.8,0.6L376,49.5c5.6,3.9,10.9,8.1,16.2,12.5l-32.3,38.5l0.8,0.6L393,62.6
		c4.7,3.9,9.2,8.1,13.6,12.4l-13,13.2l0.7,0.7l13-13.2c0.1,0.1,0.1,0.1,0.2,0.1c4.8,4.8,9.4,9.8,13.7,15l-38.5,32.3l0.6,0.8
		l38.5-32.3c3.9,4.7,7.7,9.5,11.2,14.5l-15.1,10.8l0.6,0.8l15.1-10.8c4,5.6,7.7,11.4,11.1,17.3l-43.5,25.1l0.5,0.9l43.5-25.1
		c3,5.3,5.9,10.7,8.5,16.2l-16.8,8l0.4,0.9l16.8-8c2.9,6.2,5.6,12.6,7.9,19.1l-47.1,17.2l0.3,0.9l47.1-17.2c2,5.7,3.9,11.5,5.5,17.4
		l-18,5l0.3,1l18-5c1.8,6.6,3.3,13.4,4.5,20.2l-49.3,8.7l0.2,1l49.2-8.7c1,6,1.8,12,2.3,18l-18.5,1.8l0.1,1l18.5-1.8
		c0.6,6.5,0.9,13.1,0.9,19.7h-45v3h44.9L475.9,243.3L475.9,243.3z"/>
	<g>
		<path d="M248.3,64.2c1.3,2.2,1.9,5.4,1.9,9.5s-0.6,7.2-1.9,9.5c-1.3,2.2-3.5,3.3-6.6,3.3c-3.2,0-5.4-1.1-6.6-3.3s-1.9-5.4-1.9-9.5
			s0.6-7.2,1.9-9.5s3.5-3.3,6.6-3.3C244.9,60.8,247.1,62,248.3,64.2L248.3,64.2z M238.8,80.2c0.5,1.5,1.4,2.3,2.9,2.3
			c1.4,0,2.4-0.8,2.8-2.3c0.4-1.5,0.7-3.7,0.7-6.5c0-3-0.2-5.2-0.7-6.6s-1.4-2.2-2.8-2.2s-2.4,0.7-2.9,2.2c-0.5,1.4-0.7,3.6-0.7,6.6
			C238.1,76.5,238.4,78.7,238.8,80.2L238.8,80.2z"/>
	</g>
	<g>
		<path d="M215,406.4v-3.3c1.5-0.1,2.6-0.2,3.2-0.3c1-0.2,1.8-0.6,2.4-1.3c0.4-0.4,0.7-1,1-1.8c0.1-0.4,0.2-0.8,0.2-1h4.1v24.8h-5
			v-17.1L215,406.4L215,406.4z"/>
		<path d="M233.9,412.8c0.6-1.1,1.5-2,2.8-2.5c-1.2-0.8-2-1.7-2.3-2.6c-0.4-0.9-0.5-1.8-0.5-2.6c0-1.8,0.7-3.3,2-4.6
			c1.4-1.3,3.3-1.9,5.8-1.9s4.4,0.6,5.8,1.9c1.4,1.3,2,2.8,2,4.6c0,0.8-0.2,1.7-0.5,2.6c-0.4,0.9-1.1,1.7-2.3,2.4
			c1.2,0.7,2.1,1.6,2.8,2.7c0.6,1.1,0.9,2.4,0.9,3.8c0,2.1-0.8,3.9-2.3,5.3c-1.5,1.5-3.7,2.2-6.5,2.2s-4.9-0.7-6.3-2.2
			c-1.4-1.5-2.1-3.2-2.1-5.3C233,415.2,233.3,413.9,233.9,412.8L233.9,412.8z M239,419.1c0.6,0.7,1.5,1,2.6,1s2-0.3,2.6-1
			s0.9-1.6,0.9-2.8c0-1.3-0.3-2.2-1-2.9c-0.6-0.7-1.5-1-2.6-1s-2,0.3-2.6,1s-1,1.6-1,2.9C238,417.5,238.4,418.4,239,419.1L239,419.1
			z M239.3,407.8c0.6,0.6,1.3,0.9,2.3,0.9s1.8-0.3,2.3-0.9s0.8-1.3,0.8-2.2c0-1-0.3-1.7-0.8-2.3c-0.5-0.6-1.3-0.8-2.3-0.8
			s-1.8,0.3-2.3,0.8c-0.6,0.6-0.8,1.3-0.8,2.3C238.5,406.5,238.7,407.3,239.3,407.8L239.3,407.8z"/>
		<path d="M267.8,401.8c1.3,2.2,1.9,5.4,1.9,9.5s-0.6,7.2-1.9,9.4c-1.3,2.2-3.5,3.3-6.6,3.3c-3.2,0-5.4-1.1-6.6-3.3
			c-1.3-2.2-1.9-5.4-1.9-9.5s0.6-7.2,1.9-9.5c1.3-2.2,3.5-3.3,6.6-3.3C264.3,398.5,266.5,399.6,267.8,401.8L267.8,401.8z
			 M258.3,417.8c0.5,1.5,1.4,2.3,2.9,2.3c1.4,0,2.4-0.8,2.8-2.3s0.7-3.7,0.7-6.5c0-3-0.2-5.2-0.7-6.6c-0.4-1.4-1.4-2.1-2.8-2.1
			s-2.4,0.7-2.9,2.1s-0.7,3.6-0.7,6.6C257.6,414.2,257.8,416.3,258.3,417.8L258.3,417.8z"/>
	</g>
	<g>
		<path d="M56.8,248.6c0.7-1.7,2.3-3.4,4.9-5.2c2.2-1.6,3.7-2.8,4.4-3.5c1-1.1,1.5-2.3,1.5-3.6c0-1-0.3-1.9-0.9-2.6
			c-0.6-0.7-1.4-1-2.5-1c-1.5,0-2.5,0.6-3,1.7c-0.3,0.6-0.5,1.7-0.5,3H56c0.1-2.1,0.5-3.8,1.1-5.1c1.3-2.5,3.6-3.7,6.9-3.7
			c2.6,0,4.7,0.7,6.3,2.2c1.6,1.5,2.3,3.4,2.3,5.8c0,1.8-0.5,3.5-1.6,4.9c-0.7,0.9-1.9,2-3.5,3.2l-2,1.4c-1.2,0.9-2.1,1.5-2.5,1.9
			c-0.5,0.4-0.8,0.8-1.1,1.4h10.8v4.3h-17C55.7,251.7,56.1,250.1,56.8,248.6L56.8,248.6z"/>
		<path d="M92.5,232.8c-0.7,0.7-1.7,2-3,3.8s-2.4,3.7-3.3,5.7c-0.7,1.5-1.3,3.4-1.9,5.6c-0.6,2.2-0.8,4-0.8,5.5h-5.1
			c0.1-4.4,1.6-9.1,4.4-13.9c1.8-3,3.3-5,4.5-6.2H74.9L75,229h17.5V232.8z"/>
		<path d="M109.8,231.8c1.3,2.2,1.9,5.4,1.9,9.5s-0.6,7.2-1.9,9.5c-1.3,2.2-3.5,3.3-6.6,3.3s-5.4-1.1-6.6-3.3
			c-1.3-2.2-1.9-5.4-1.9-9.5s0.6-7.2,1.9-9.5s3.5-3.3,6.6-3.3S108.5,229.6,109.8,231.8L109.8,231.8z M100.3,247.8
			c0.5,1.5,1.4,2.3,2.9,2.3c1.4,0,2.4-0.8,2.8-2.3s0.7-3.7,0.7-6.5c0-3-0.2-5.2-0.7-6.6c-0.4-1.4-1.4-2.2-2.8-2.2s-2.4,0.7-2.9,2.2
			c-0.5,1.4-0.7,3.6-0.7,6.6C99.6,244.2,99.8,246.3,100.3,247.8L100.3,247.8z"/>
	</g>
	<g>
		<path d="M392.2,230.9c1.5-1.6,3.5-2.5,6-2.5c3.8,0,6.4,1.7,7.8,5c0.8,1.9,1.2,4.4,1.2,7.5c0,3-0.4,5.5-1.1,7.5
			c-1.5,3.8-4.1,5.7-8,5.7c-1.9,0-3.5-0.6-5-1.6c-1.5-1.1-2.3-2.7-2.5-4.8h4.9c0.1,0.7,0.4,1.3,0.9,1.8s1.2,0.7,2,0.7
			c1.6,0,2.7-0.9,3.4-2.7c0.4-1,0.6-2.4,0.7-4.3c-0.4,0.6-0.9,1-1.4,1.3c-0.9,0.5-2,0.8-3.4,0.8c-2,0-3.7-0.7-5.2-2
			c-1.5-1.4-2.3-3.3-2.3-5.9C389.9,234.7,390.6,232.6,392.2,230.9L392.2,230.9z M400.4,240.8c1.1-0.7,1.7-1.9,1.7-3.7
			c0-1.4-0.3-2.5-1-3.3s-1.6-1.2-2.7-1.2c-0.8,0-1.5,0.2-2.1,0.7c-0.9,0.7-1.4,2-1.4,3.7c0,1.5,0.3,2.6,0.9,3.3s1.5,1.1,2.8,1.1
			C399.1,241.4,399.8,241.2,400.4,240.8L400.4,240.8z"/>
		<path d="M424.6,231.8c1.3,2.2,1.9,5.4,1.9,9.5s-0.6,7.2-1.9,9.5c-1.3,2.2-3.5,3.3-6.6,3.3c-3.2,0-5.4-1.1-6.6-3.3
			c-1.3-2.2-1.9-5.4-1.9-9.5s0.6-7.2,1.9-9.5c1.3-2.2,3.5-3.3,6.6-3.3S423.3,229.6,424.6,231.8L424.6,231.8z M415.1,247.8
			c0.5,1.5,1.4,2.3,2.9,2.3c1.4,0,2.4-0.8,2.8-2.3s0.7-3.7,0.7-6.5c0-3-0.2-5.2-0.7-6.6c-0.5-1.4-1.4-2.2-2.8-2.2s-2.4,0.7-2.9,2.2
			c-0.5,1.4-0.7,3.6-0.7,6.6C414.4,244.2,414.6,246.3,415.1,247.8L415.1,247.8z"/>
	</g>
	<g>
		<path d="M321.8,108.2c0.6,0.4,1.2,0.6,1.7,0.6c0.9,0.1,1.7-0.4,2.3-1.3c0.3-0.6,0.4-1.2,0.3-1.9c-0.1-0.7-0.6-1.2-1.4-1.7
			c-1-0.6-1.9-0.6-2.7,0c-0.5,0.4-1,1-1.6,2l-2.2-1.3c0.6-1,0.9-1.7,0.9-2.2c0.1-0.8-0.3-1.5-1.2-2c-0.6-0.3-1.2-0.4-1.7-0.3
			c-0.6,0.1-1,0.5-1.4,1.1c-0.4,0.7-0.5,1.4-0.2,2s0.8,1.1,1.5,1.5l-1.6,2.8c-0.7-0.5-1.4-1-1.9-1.6s-0.8-1.3-1-2.1
			c-0.1-0.6-0.1-1.2,0-1.9c0.1-0.7,0.4-1.4,0.9-2.2c0.9-1.5,1.9-2.4,3.2-2.9s2.6-0.3,3.8,0.4c0.9,0.5,1.5,1.2,1.8,2.1
			c0.2,0.6,0.2,1.1,0.2,1.5c0.2-0.3,0.6-0.5,1.4-0.8c1.2-0.4,2.4-0.2,3.6,0.5c1.3,0.8,2.2,1.9,2.6,3.3c0.5,1.5,0.2,3.1-0.8,4.8
			c-1.3,2.2-2.8,3.3-4.7,3.3c-1,0-2.1-0.3-3.4-1L321.8,108.2z"/>
		<path d="M323.9,84.6c1.8,0,4,0.8,6.5,2.2c2.5,1.5,4.2,3,5.2,4.6c0.9,1.6,0.8,3.3-0.3,5.3c-1.1,1.9-2.6,2.9-4.4,2.9s-4-0.7-6.5-2.2
			s-4.2-3-5.2-4.6c-0.9-1.6-0.8-3.3,0.3-5.3C320.6,85.6,322.1,84.6,323.9,84.6L323.9,84.6z M330.4,96.2c1.1,0.3,1.9-0.1,2.4-1
			s0.4-1.8-0.4-2.6c-0.8-0.8-2-1.7-3.8-2.8c-1.8-1.1-3.3-1.7-4.3-2c-1-0.2-1.8,0.1-2.4,1c-0.5,0.9-0.4,1.7,0.3,2.5
			c0.7,0.8,2,1.7,3.8,2.8C327.9,95.3,329.3,96,330.4,96.2L330.4,96.2z"/>
	</g>
	<g>
		<path d="M378.1,156.6c-0.1-0.2-0.4-0.5-0.8-0.7c-0.6-0.3-1.2-0.3-1.9,0.1c-1,0.6-1.4,1.5-1.1,2.9c0.1,0.7,0.5,1.7,1.1,3
			c0.1-0.7,0.4-1.2,0.7-1.7c0.4-0.5,0.9-0.9,1.5-1.3c1.4-0.8,2.7-1,4.1-0.5c1.4,0.4,2.5,1.4,3.3,2.8c0.8,1.4,1.1,2.9,0.9,4.5
			s-1.2,2.9-3,3.9c-1.9,1.1-3.8,1.1-5.7,0c-1.4-0.9-2.7-2.3-3.9-4.3c-0.7-1.2-1.2-2.2-1.5-2.9c-0.6-1.4-0.9-2.7-0.8-3.9
			c0-1,0.2-1.9,0.7-2.8c0.4-0.9,1.2-1.6,2.2-2.1c1.4-0.8,2.8-1.1,4-0.9c1.3,0.2,2.3,0.9,3.1,2.1L378.1,156.6z M379.5,167.3
			c0.7,0.3,1.5,0.2,2.1-0.2c0.7-0.4,1.1-0.9,1.1-1.7c0.1-0.7-0.1-1.5-0.5-2.3c-0.5-0.9-1.1-1.5-1.8-1.7c-0.7-0.2-1.4-0.2-2,0.2
			c-0.5,0.3-0.9,0.7-1.1,1.2c-0.3,0.8-0.2,1.7,0.4,2.7C378.2,166.5,378.8,167.1,379.5,167.3L379.5,167.3z"/>
		<path d="M391.2,146.6c1.6,0.9,3.1,2.7,4.5,5.2c1.5,2.5,2.2,4.7,2.2,6.5s-1,3.3-2.9,4.4c-2,1.1-3.7,1.2-5.3,0.3
			c-1.6-0.9-3.1-2.6-4.5-5.2c-1.5-2.5-2.2-4.7-2.2-6.5s1-3.3,2.9-4.4C387.9,145.8,389.7,145.7,391.2,146.6L391.2,146.6z M391,159.9
			c0.8,0.8,1.7,0.9,2.6,0.4s1.2-1.3,1-2.4c-0.3-1.1-0.9-2.5-1.9-4.3c-1.1-1.9-2-3.1-2.8-3.9c-0.8-0.7-1.6-0.8-2.5-0.3
			s-1.2,1.3-1,2.4c0.2,1.1,0.9,2.5,1.9,4.4C389.3,157.8,390.2,159.1,391,159.9L391,159.9z"/>
	</g>
	<g>
		<path d="M365.3,308l1.2-2c1,0.5,1.7,0.8,2.1,1c0.7,0.2,1.3,0.2,1.9,0.1c0.4-0.1,0.8-0.4,1.2-0.8c0.2-0.2,0.4-0.4,0.5-0.5l2.5,1.5
			l-8.9,15.3l-3.1-1.8l6.1-10.6L365.3,308z"/>
		<path d="M372.8,322.5c1-0.8,2.7-1.3,4.9-1.5c2-0.2,3.3-0.4,3.9-0.6c1-0.3,1.8-0.9,2.2-1.6c0.4-0.6,0.5-1.3,0.4-1.9
			s-0.5-1.1-1.2-1.5c-0.9-0.5-1.7-0.6-2.5-0.1c-0.4,0.3-0.9,0.8-1.4,1.7l-2.9-1.7c0.8-1.3,1.7-2.2,2.5-2.7c1.7-1.1,3.6-1,5.6,0.2
			c1.6,0.9,2.6,2.1,3.1,3.6c0.4,1.5,0.2,2.9-0.6,4.4c-0.7,1.1-1.6,1.9-2.8,2.4c-0.8,0.3-1.9,0.6-3.3,0.7l-1.7,0.2
			c-1.1,0.1-1.8,0.2-2.2,0.3c-0.4,0.1-0.8,0.2-1.2,0.4l6.7,3.9l-1.5,2.6l-10.5-6.1C371,324,371.8,323.1,372.8,322.5L372.8,322.5z"/>
		<path d="M399.5,324.2c0,1.8-0.8,4-2.2,6.5s-3,4.2-4.6,5.2c-1.6,0.9-3.3,0.8-5.3-0.3c-1.9-1.1-2.9-2.6-2.9-4.4s0.7-4,2.2-6.5
			s3-4.2,4.6-5.2c1.6-0.9,3.3-0.8,5.3,0.3C398.5,320.9,399.5,322.4,399.5,324.2L399.5,324.2z M387.9,330.6c-0.3,1.1,0.1,1.9,1,2.4
			s1.8,0.4,2.6-0.4c0.8-0.8,1.7-2,2.8-3.8c1.1-1.8,1.7-3.3,2-4.3c0.2-1-0.1-1.8-1-2.4c-0.9-0.5-1.7-0.4-2.5,0.3
			c-0.8,0.7-1.7,2-2.8,3.8C388.8,328.1,388.1,329.5,387.9,330.6L387.9,330.6z"/>
	</g>
	<g>
		<path d="M315.4,360.9l2.1-1.2c0.6,0.9,1,1.6,1.3,1.9c0.5,0.5,1,0.9,1.7,1c0.4,0.1,0.9,0.1,1.4,0c0.3-0.1,0.5-0.2,0.7-0.2l1.4,2.5
			l-15.4,8.8l-1.8-3.1l10.6-6.1L315.4,360.9z"/>
		<path d="M317,378.8c-0.6,0.5-1,1-1.1,1.6c-0.2,0.5-0.1,1.1,0.3,1.8c0.4,0.7,1,1.2,1.8,1.3s1.5-0.1,2.3-0.6c0.8-0.4,1.3-1,1.7-1.7
			c0.3-0.7,0.3-1.4-0.2-2.2c-0.2-0.4-0.4-0.7-0.7-0.9c-0.4-0.4-1-0.6-1.6-0.5l-1.4-2.8l9.1-3.8l4.8,8.4l-2.6,1.5l-3.6-6.3l-3.7,1.4
			c0.6,0.3,1,0.5,1.2,0.7c0.4,0.3,0.8,0.8,1.2,1.5c0.7,1.3,0.9,2.6,0.6,4.1c-0.3,1.4-1.3,2.6-2.9,3.6c-1.4,0.8-2.9,1.1-4.6,0.8
			c-1.6-0.3-3-1.3-4-3.1c-0.8-1.5-1.1-2.9-0.9-4.3s1.1-2.5,2.4-3.5L317,378.8z"/>
		<path d="M337,392c-0.9,1.6-2.7,3.1-5.2,4.5c-2.5,1.5-4.7,2.2-6.5,2.2s-3.3-1-4.4-2.9c-1.1-2-1.2-3.7-0.3-5.3
			c0.9-1.6,2.6-3.1,5.2-4.5c2.5-1.5,4.7-2.2,6.5-2.2s3.3,1,4.4,2.9C337.8,388.7,337.9,390.4,337,392L337,392z M323.7,391.8
			c-0.8,0.8-0.9,1.7-0.4,2.6s1.3,1.2,2.4,1s2.5-0.9,4.3-1.9c1.9-1.1,3.1-2,3.9-2.8s0.8-1.6,0.3-2.5s-1.3-1.2-2.4-1s-2.5,0.9-4.4,1.9
			C325.7,390.1,324.4,391,323.7,391.8L323.7,391.8z"/>
	</g>
	<g>
		<path d="M235.5,90h2.5l7.9,12.8V90h2v15.8h-2.4l-8-12.7v12.7h-2V90L235.5,90z"/>
	</g>
	<g>
		<path d="M237.5,386.4c0,0.9,0.3,1.6,0.6,2.2c0.7,1,1.9,1.6,3.6,1.6c0.8,0,1.5-0.1,2.1-0.3c1.2-0.4,1.8-1.2,1.8-2.4
			c0-0.9-0.3-1.5-0.8-1.8c-0.5-0.4-1.4-0.7-2.5-0.9l-2.1-0.5c-1.4-0.3-2.3-0.7-2.9-1c-1-0.7-1.5-1.6-1.5-3s0.5-2.6,1.4-3.5
			c1-0.9,2.3-1.4,4.1-1.4c1.6,0,3,0.4,4.1,1.2c1.1,0.8,1.7,2.1,1.7,3.8h-2c-0.1-0.8-0.3-1.5-0.7-1.9c-0.6-0.8-1.7-1.2-3.2-1.2
			c-1.2,0-2.1,0.3-2.6,0.8s-0.8,1.1-0.8,1.8c0,0.8,0.3,1.3,0.9,1.7c0.4,0.2,1.3,0.5,2.8,0.9l2.1,0.5c1,0.2,1.8,0.6,2.4,1
			c1,0.7,1.5,1.8,1.5,3.2c0,1.7-0.6,3-1.9,3.7s-2.7,1.1-4.3,1.1c-1.9,0-3.4-0.5-4.5-1.5s-1.6-2.3-1.6-4.1L237.5,386.4L237.5,386.4z"
			/>
	</g>
	<g>
		<path d="M350.3,233.7h11.5v1.9h-9.4v4.8h8.7v1.8h-8.7v5.4h9.5v1.9h-11.6V233.7L350.3,233.7z"/>
	</g>
	<g>
		<path d="M118.8,233.7l3,12.8l3.6-12.8h2.3l3.6,12.8l3-12.8h2.3l-4.1,15.8h-2.2l-3.6-13.1l-3.7,13.1h-2.2l-4.1-15.8H118.8z"/>
	</g>
	<g>
		<path d="M156.8,398.5c-0.8-1-1.2-2.7-1.4-4.9c-0.2-2-0.4-3.3-0.5-3.9c-0.3-1-0.8-1.8-1.6-2.2c-0.6-0.4-1.3-0.5-1.9-0.4
			c-0.6,0.1-1.2,0.5-1.5,1.2c-0.5,0.9-0.6,1.7-0.1,2.5c0.3,0.4,0.8,0.9,1.7,1.4l-1.7,2.9c-1.3-0.8-2.2-1.7-2.7-2.6
			c-1.1-1.7-1-3.6,0.2-5.6c0.9-1.6,2.2-2.6,3.6-3.1c1.5-0.4,2.9-0.2,4.4,0.7c1.1,0.7,1.9,1.6,2.4,2.8c0.3,0.8,0.5,1.9,0.7,3.3
			l0.1,1.7c0.1,1.1,0.2,1.8,0.2,2.2c0.1,0.4,0.2,0.8,0.4,1.2l3.9-6.7l2.6,1.6l-6.1,10.5C158.3,400.3,157.4,399.4,156.8,398.5
			L156.8,398.5z"/>
		<path d="M156.3,381.9l-2-1.2c0.5-1,0.8-1.7,1-2.1c0.2-0.7,0.2-1.3,0.1-1.9c-0.1-0.4-0.4-0.8-0.8-1.2c-0.2-0.2-0.4-0.4-0.5-0.5
			l1.5-2.5l15.3,9l-1.8,3.1l-10.5-6.2L156.3,381.9z"/>
		<path d="M165.6,359.8c1.8,0,4,0.8,6.5,2.3s4.2,3,5.1,4.6c0.9,1.6,0.8,3.3-0.4,5.3c-1.1,1.9-2.6,2.9-4.4,2.9s-4-0.8-6.5-2.2
			c-2.5-1.5-4.2-3-5.1-4.6c-0.9-1.6-0.8-3.4,0.4-5.3C162.3,360.7,163.8,359.8,165.6,359.8L165.6,359.8z M172,371.4
			c1.1,0.3,1.9-0.1,2.4-0.9c0.5-0.9,0.4-1.7-0.4-2.6c-0.8-0.8-2-1.8-3.8-2.8c-1.8-1.1-3.3-1.7-4.3-2c-1-0.2-1.8,0.1-2.4,1
			s-0.4,1.7,0.3,2.5s2,1.8,3.8,2.8C169.5,370.5,170.9,371.2,172,371.4L172,371.4z"/>
	</g>
	<g>
		<path d="M89.5,335c-0.2-1.3,0.3-2.9,1.2-5c0.8-1.8,1.3-3,1.5-3.7c0.2-1,0.1-1.9-0.3-2.7c-0.4-0.6-0.9-1.1-1.5-1.3
			c-0.6-0.2-1.2-0.1-1.9,0.2c-0.9,0.5-1.4,1.2-1.3,2.1c0,0.5,0.3,1.2,0.7,2.1l-2.9,1.7c-0.7-1.3-1.1-2.5-1.1-3.6
			c-0.1-2,0.9-3.6,3-4.7c1.6-0.9,3.2-1.2,4.7-0.9c1.5,0.4,2.6,1.3,3.5,2.8c0.6,1.1,0.9,2.3,0.7,3.6c-0.1,0.8-0.5,1.9-1.1,3.2
			l-0.7,1.5c-0.5,1-0.8,1.7-0.9,2.1s-0.2,0.8-0.2,1.2l6.7-3.8l1.5,2.7l-10.5,6C89.9,337.3,89.5,336.2,89.5,335L89.5,335z"/>
		<path d="M111.4,322.2l-1.7,1l1.9,3.3l-3,1.7l-1.9-3.3l-6.1,3.5l-1.5-2.6l0.4-12.6l3.4-1.9l5.5,9.6l1.7-1L111.4,322.2z
			 M105.3,322.5l-3.8-6.6l-0.1,8.8L105.3,322.5z"/>
		<path d="M116.5,305.9c1.6,0.9,3.1,2.7,4.5,5.2s2.2,4.7,2.1,6.5c0,1.8-1,3.3-3,4.4s-3.7,1.2-5.3,0.3c-1.6-0.9-3.1-2.7-4.5-5.2
			s-2.2-4.7-2.2-6.6c0-1.8,1-3.3,3-4.4C113.1,305.1,114.9,305,116.5,305.9L116.5,305.9z M116.2,319.2c0.8,0.8,1.7,0.9,2.6,0.4
			s1.2-1.3,1-2.4c-0.3-1.1-0.9-2.5-1.9-4.3c-1.1-1.9-2-3.1-2.8-3.9c-0.8-0.7-1.6-0.8-2.5-0.3s-1.2,1.3-1,2.4s0.8,2.5,1.9,4.4
			C114.5,317.2,115.4,318.5,116.2,319.2L116.2,319.2z"/>
	</g>
	<g>
		<path d="M87.3,156c-0.4,0.6-0.6,1.2-0.6,1.7c-0.1,0.9,0.4,1.7,1.3,2.3c0.6,0.3,1.2,0.4,1.9,0.3c0.7-0.1,1.2-0.6,1.7-1.4
			c0.6-1,0.6-1.9,0-2.7c-0.4-0.5-1-1-2-1.6l1.3-2.1c1,0.6,1.7,0.9,2.2,0.9c0.8,0.1,1.5-0.3,2-1.2c0.3-0.6,0.4-1.2,0.3-1.7
			s-0.5-1-1.1-1.4c-0.7-0.4-1.4-0.5-2-0.2s-1.1,0.8-1.5,1.5l-2.8-1.6c0.5-0.7,1-1.4,1.7-1.9c0.6-0.5,1.3-0.8,2.1-1
			c0.6-0.1,1.2-0.1,1.9,0c0.7,0.1,1.4,0.4,2.2,0.9c1.5,0.9,2.4,1.9,2.9,3.2c0.4,1.3,0.3,2.6-0.4,3.8c-0.5,0.9-1.2,1.5-2.1,1.8
			c-0.6,0.2-1.1,0.2-1.5,0.2c0.3,0.2,0.5,0.6,0.8,1.4c0.3,1.2,0.2,2.4-0.6,3.6c-0.8,1.3-1.9,2.2-3.3,2.6c-1.5,0.5-3.1,0.2-4.8-0.9
			c-2.2-1.3-3.2-2.9-3.3-4.8c0-1,0.3-2.1,1-3.4L87.3,156z"/>
		<path d="M110.9,158.2c0,1.8-0.8,4-2.3,6.5s-3,4.2-4.6,5.1c-1.6,0.9-3.3,0.8-5.3-0.4s-2.9-2.6-2.9-4.4c0-1.8,0.8-4,2.2-6.5
			c1.5-2.5,3-4.2,4.6-5.1s3.4-0.8,5.3,0.4C110,154.9,110.9,156.4,110.9,158.2L110.9,158.2z M99.3,164.6c-0.3,1.1,0.1,1.9,0.9,2.4
			c0.9,0.5,1.7,0.4,2.6-0.4c0.8-0.8,1.8-2,2.8-3.8c1.1-1.8,1.7-3.3,2-4.3c0.2-1-0.1-1.8-1-2.4s-1.7-0.4-2.5,0.3s-1.8,2-2.8,3.8
			C100.2,162.1,99.5,163.6,99.3,164.6L99.3,164.6z"/>
		<path d="M122.9,165.3c0,1.8-0.8,4-2.3,6.5s-3,4.2-4.6,5.1c-1.6,0.9-3.3,0.8-5.3-0.4s-2.9-2.6-2.9-4.4c0-1.8,0.8-4,2.2-6.5
			c1.5-2.5,3-4.2,4.6-5.1c1.6-0.9,3.4-0.8,5.3,0.4C122,162,122.9,163.4,122.9,165.3L122.9,165.3z M111.2,171.7
			c-0.3,1.1,0.1,1.9,0.9,2.4s1.7,0.4,2.6-0.4c0.8-0.8,1.8-2,2.8-3.8c1.1-1.8,1.7-3.3,2-4.3c0.2-1-0.1-1.8-1-2.4s-1.7-0.4-2.5,0.3
			s-1.8,2-2.8,3.8C112.1,169.2,111.5,170.6,111.2,171.7L111.2,171.7z"/>
	</g>
	<g>
		<path d="M150.6,90.3c-0.6,0.3-1.1,0.7-1.4,1.2c-0.5,0.8-0.5,1.7,0,2.6c0.3,0.6,0.8,1,1.5,1.2s1.4,0.1,2.1-0.3
			c1-0.6,1.5-1.4,1.3-2.4c-0.1-0.6-0.4-1.4-1-2.4l2.2-1.2c0.6,1,1.1,1.6,1.5,1.9c0.7,0.5,1.5,0.5,2.4,0c0.6-0.3,1-0.8,1.1-1.3
			c0.2-0.6,0.1-1.1-0.3-1.8c-0.4-0.7-0.9-1.1-1.6-1.2c-0.6-0.1-1.3,0.1-2.1,0.5l-1.6-2.8c0.8-0.4,1.6-0.7,2.4-0.8
			c0.7-0.1,1.5,0,2.3,0.2c0.6,0.2,1.1,0.5,1.6,0.9s1,1.1,1.4,1.8c0.8,1.5,1.1,2.9,0.9,4.2c-0.2,1.3-1,2.4-2.3,3.1
			c-0.9,0.5-1.8,0.7-2.8,0.5c-0.6-0.1-1-0.3-1.4-0.6c0.2,0.3,0.1,0.8,0,1.6c-0.3,1.2-1,2.1-2.3,2.8c-1.3,0.7-2.7,0.9-4.2,0.6
			s-2.8-1.4-3.8-3.2c-1.2-2.2-1.4-4.1-0.4-5.8c0.5-0.9,1.4-1.7,2.6-2.4L150.6,90.3z"/>
		<path d="M157.4,102.4c-0.6,0.3-1.1,0.7-1.4,1.2c-0.5,0.8-0.5,1.7,0,2.6c0.3,0.6,0.8,1,1.5,1.2s1.4,0.1,2.1-0.3
			c1-0.6,1.5-1.4,1.3-2.4c-0.1-0.6-0.4-1.4-1-2.4l2.2-1.2c0.6,1,1.1,1.6,1.5,1.9c0.7,0.5,1.5,0.5,2.4,0c0.6-0.3,1-0.8,1.1-1.3
			c0.2-0.6,0.1-1.1-0.3-1.8c-0.4-0.7-0.9-1.1-1.6-1.2c-0.6-0.1-1.3,0.1-2.1,0.5l-1.6-2.8c0.8-0.4,1.6-0.7,2.4-0.8
			c0.7-0.1,1.5,0,2.3,0.2c0.6,0.2,1.1,0.5,1.6,0.9s1,1.1,1.4,1.8c0.8,1.5,1.1,2.9,0.9,4.2c-0.2,1.3-1,2.4-2.3,3.1
			c-0.9,0.5-1.8,0.7-2.8,0.5c-0.6-0.1-1-0.3-1.4-0.6c0.2,0.3,0.1,0.8,0,1.6c-0.3,1.2-1,2.1-2.3,2.8c-1.3,0.7-2.7,0.9-4.2,0.6
			s-2.8-1.4-3.8-3.2c-1.2-2.2-1.4-4.1-0.4-5.8c0.5-0.9,1.4-1.7,2.6-2.4L157.4,102.4z"/>
		<path d="M176.7,116.1c-0.9,1.6-2.7,3.1-5.2,4.5s-4.7,2.2-6.5,2.1c-1.8,0-3.3-1-4.4-3c-1.1-2-1.2-3.7-0.3-5.3
			c0.9-1.6,2.7-3.1,5.2-4.5s4.7-2.2,6.6-2.2c1.8,0,3.3,1,4.4,3C177.6,112.8,177.7,114.6,176.7,116.1L176.7,116.1z M163.4,115.9
			c-0.8,0.8-0.9,1.7-0.4,2.6s1.3,1.2,2.4,1c1.1-0.3,2.5-0.9,4.3-1.9c1.9-1.1,3.1-2,3.9-2.8c0.7-0.8,0.8-1.6,0.3-2.5s-1.3-1.2-2.4-1
			c-1.1,0.2-2.5,0.9-4.4,1.9C165.5,114.1,164.2,115,163.4,115.9L163.4,115.9z"/>
	</g>
</g>
</svg>
