<?xml version="1.0" encoding="UTF-8"?>
<svg width="24px" height="24px" viewBox="0 0 24 24" version="1.1" xmlns="http://www.w3.org/2000/svg" xmlns:xlink="http://www.w3.org/1999/xlink">
    <title>iconography/os_maps</title>
    <defs>
        <path d="M14.5478731,11.2628528 C13.9780803,10.9338507 13.7820254,10.2063716 14.1114586,9.63574971 C14.4410245,9.06509466 15.1690011,8.87126163 15.7388602,9.20016428 C16.3097806,9.52989599 16.5071288,10.2581046 16.1776955,10.8285275 C15.8482955,11.3992158 15.1188598,11.592485 14.5478731,11.2628528 L14.5478731,11.2628528 Z M19.7263157,3.76716869 C19.7484017,3.49659834 19.6134648,3.23544605 19.3778142,3.0963638 C19.140804,2.95956975 18.8481476,2.96872251 18.6224789,3.12186553 L4.80879967,12.5124707 C4.56515702,12.6772868 4.4503495,12.9755807 4.52022224,13.2610409 C4.58886799,13.5459041 4.82750314,13.7599329 5.11986106,13.7983348 L12.6105377,14.7565896 L17.0522158,20.7143769 C17.1747169,20.8807516 17.3614201,20.9805035 17.5590336,20.9974826 C17.6428676,21.0045129 17.7286582,20.9968525 17.8135203,20.97407 C18.0961949,20.8939502 18.298849,20.6478535 18.3228585,20.3546997 L19.7263157,3.76716869 Z" id="path-1"></path>
    </defs>
    <g id="iconography/os_maps" stroke="none" stroke-width="1" fill="none" fill-rule="evenodd">
        <rect id="Rectangle-6" x="0" y="0" width="24" height="24"></rect>
        <mask id="mask-2" fill="white">
            <use xlink:href="#path-1"></use>
        </mask>
        <use id="Fill-1" fill="#5E5F5F" xlink:href="#path-1"></use>
        <g id="Group" mask="url(#mask-2)" fill="#D40058">
            <g id="colours/#66">
                <rect id="Rectangle-13" x="0" y="0" width="24" height="24"></rect>
            </g>
        </g>
    </g>
</svg>