<svg xmlns="http://www.w3.org/2000/svg" viewBox="0 0 26 26" enable-background="new 0 0 26 26">
    <path d="M 3 0 C 0.1 0 -0.8125 4.89375 0.6875 5.09375 C 0.95816441 5.1250901 1.2319863 5.1782903 1.5 5.21875 L 3.09375 15.5625 L 4.09375 15.4375 L 2.5625 5.40625 C 10.666108 7.0018083 17.444457 12.625403 21.34375 18.46875 L 13.375 20.71875 L 13.625 21.6875 L 21.875 19.34375 C 21.946417 19.459524 22.024649 19.571756 22.09375 19.6875 C 22.69375 20.6875 26 18.2 26 17 C 26 9.3 16 0 3 0 z M 3.78125 16.21875 A 0.750075 0.750075 0 0 0 3.625 16.25 A 0.750075 0.750075 0 0 0 3.0625 16.875 L 2.65625 19.28125 A 0.750075 0.750075 0 0 0 2.78125 19.8125 L 3.90625 21.5 L 3.1875 23.1875 C 2.8875 23.8875 3.1125 24.69375 3.8125 25.09375 L 4.8125 25.6875 C 5.6125 26.1875 6.5875 26.0125 7.1875 25.3125 L 8.25 23.90625 L 10.21875 23.84375 A 0.750075 0.750075 0 0 0 10.625 23.71875 L 12.625 22.3125 A 0.750075 0.750075 0 0 0 12.09375 20.9375 A 0.750075 0.750075 0 0 0 11.78125 21.09375 L 10 22.34375 L 8.125 22.40625 L 5.25 20.8125 A 0.75405803 0.75405803 0 0 0 5.21875 20.78125 L 4.1875 19.1875 L 4.53125 17.125 A 0.750075 0.750075 0 0 0 3.78125 16.21875 z M 8 17 C 6.8954305 17 6 17.895431 6 19 C 6 20.104569 6.8954305 21 8 21 C 9.1045695 21 10 20.104569 10 19 C 10 17.895431 9.1045695 17 8 17 z" fill="#ffffff"/>
</svg>